HIERARCHY
ROOT pelvis
{
  OFFSET 0 100 0
  CHANNELS 6 Xposition Yposition Zposition Zrotation Xrotation Yrotation
  JOINT pelvis_right_femur
  {
    OFFSET -10.78128 -3.44521 -0.5502486
    CHANNELS 3 Zrotation Xrotation Yrotation
    JOINT right_femur_tibia
    {
      OFFSET -0.8047443 -44.0398 -0.1307829
      CHANNELS 3 Zrotation Xrotation Yrotation
      JOINT right_tibia_foot
      {
        OFFSET 3.006224 -47.83518 -5
        CHANNELS 3 Zrotation Xrotation Yrotation
        End Site
        {
          OFFSET 0 -5 15
        }
      }
    }
  }
  JOINT pelvis_left_femur
  {
    OFFSET 10.78128 -3.44521 -0.5502486
    CHANNELS 3 Zrotation Xrotation Yrotation
    JOINT left_femur_tibia
    {
      OFFSET 0.8047443 -44.0398 -0.1307829
      CHANNELS 3 Zrotation Xrotation Yrotation
      JOINT left_tibia_foot
      {
        OFFSET -4.370144 -48.10324 -4.275266
        CHANNELS 3 Zrotation Xrotation Yrotation
        End Site
        {
          OFFSET 0 -5 15
        }
      }
    }
  }
  JOINT pelvis_spine1
  {
    OFFSET 0 6.468898 -3.129235
    CHANNELS 3 Zrotation Xrotation Yrotation
    JOINT spine1
    {
      OFFSET 0 23.15396 4.99043
      CHANNELS 3 Zrotation Xrotation Yrotation
      JOINT spine2
      {
        OFFSET 0 20.79997 -5.064912
        CHANNELS 3 Zrotation Xrotation Yrotation
        JOINT neck
        {
          OFFSET 0 14.38658 9.616178
          CHANNELS 3 Zrotation Xrotation Yrotation
          End Site
          {
            OFFSET 0 20 0
          }
        }
      }
      JOINT right_manubrium
      {
        OFFSET -5.722621 16.35077 3.967754
        CHANNELS 3 Zrotation Xrotation Yrotation
        JOINT right_clavicle
        {
          OFFSET -13.16364 1.694482 -4.693211
          CHANNELS 3 Zrotation Xrotation Yrotation
          JOINT right_humerus
          {
            OFFSET -28.5034 -0.3100689 -2.792744
            CHANNELS 3 Zrotation Xrotation Yrotation
            JOINT right_radius
            {
              OFFSET -25.15693 0.02248979 -1.271978
              CHANNELS 3 Zrotation Xrotation Yrotation
              End Site
              {
                OFFSET -15 0 0
              }
            }
          }
        }
      }
      JOINT left_manubrium
      {
        OFFSET 5.722621 16.35077 3.967754
        CHANNELS 3 Zrotation Xrotation Yrotation
        JOINT left_clavicle
        {
          OFFSET 13.16364 1.694482 -4.693211
          CHANNELS 3 Zrotation Xrotation Yrotation
          JOINT left_humerus
          {
            OFFSET 29.39168 -1.063119 -2.237045
            CHANNELS 3 Zrotation Xrotation Yrotation
            JOINT left_radius
            {
              OFFSET 24.59957 -0.9528479 0.9047498
              CHANNELS 3 Zrotation Xrotation Yrotation
              End Site
              {
                OFFSET 15 -0 -0
              }
            }
          }
        }
      }
    }
  }
}
MOTION
Frames: 21
Frame Time: 0.0416666666667
0 103.5113 0 2.814103 -0.731935 -0.0379192 1.02772 -12.93208 10.25684 -0 38.09657 -0 -5.749028 -16.58536 -2.817432 -9.136614 8.728939 -23.53384 -0 5.281246 -0 16.55527 -12.40445 30.39058 -5.152493 -5.076161 6.017581 2.011846 10.63098 -7.391511 1.546044 22.99327 6.186956 2.125833 -24.04981 10.0269 6.651691 -20.70797 11.58795 87.42886 39.73806 -19.7619 -0 0 15.53955 -8.279404 10.39412 4.764804 5.10541 -19.90629 -1.980695 -91.93385 23.31817 20.71536 0 0 -16.18802 14.15359 16.43476 -0.8432194
0.30541 103.3392 1.265528 2.190399 -0.5339131 -0.05542711 1.832655 -14.71817 10.03602 -0 38.72197 -0 -5.96913 -15.41394 -2.76245 -8.550341 8.897014 -23.06658 -0 5.264828 -0 15.30314 -13.27562 29.59642 -4.686605 -4.679318 5.66287 2.074459 10.5342 -7.43535 1.518475 22.63689 6.402269 2.369421 -24.29063 10.02213 6.620657 -20.4746 11.63449 86.96092 38.94638 -19.309 -0 0 15.70688 -8.43317 10.19304 4.849353 5.423496 -19.98302 -1.790424 -92.01497 22.86092 20.63618 0 0 -15.73607 14.2262 16.29608 -1.14453
0.5144604 103.1838 3.412539 0.4119216 -0.03377299 0.03111855 4.741157 -19.78188 9.175983 -0 35.46053 -0 -5.838195 -12.26904 -4.370155 -6.621571 11.23485 -19.49159 -0 6.192555 -0 10.20081 -17.44622 24.88177 -4.283597 -3.180299 3.707179 4.138618 10.181 -9.089748 0.9935718 21.79737 5.659987 1.730408 -26.24975 8.485181 5.72025 -20.07775 11.87019 86.58318 33.51516 -20.10768 -0 0 13.84379 -6.979589 6.837929 6.626073 4.099377 -19.58709 -2.025614 -92.7527 26.6558 21.25303 0 0 -16.10805 6.470186 14.67988 6.864119
0.7158377 102.9843 5.9881 -0.337166 0.4767535 0.2313751 5.693228 -22.81933 8.632068 -0 33.82568 -0 -6.073807 -10.15777 -4.398633 -5.873183 11.82813 -18.38557 -0 6.980915 -0 7.724262 -18.91916 22.7849 -3.770521 -2.536508 3.182601 4.3582 9.961399 -9.362691 0.9209125 21.26761 5.915642 2.052496 -26.53838 8.318137 5.660617 -19.56212 11.85037 86.37555 32.70653 -20.25891 -0 0 13.53929 -7.4774 6.882684 6.991099 4.379689 -19.8408 -1.929923 -92.59697 26.85302 20.86065 0 0 -16.4598 5.244827 14.22865 8.104254
0.9062356 102.6966 8.933933 -0.9354082 1.072654 0.5018038 6.474071 -25.71558 8.13913 -0 31.16172 -0 -6.293736 -8.534498 -4.318075 -5.281057 12.47473 -17.57175 -0 7.847948 -0 5.524443 -20.24305 20.93158 -3.318073 -2.026368 2.826738 4.496245 9.676027 -9.552579 0.919282 20.80896 6.153103 2.381156 -26.78256 8.257924 5.595887 -19.06598 11.76158 86.29308 32.27509 -20.5587 -0 0 13.28278 -7.879619 7.119493 7.122743 4.768474 -20.13897 -1.789434 -92.45107 27.05585 20.42271 0 0 -17.02094 4.353422 13.99505 9.023317
1.161362 102.3674 12.43636 -1.290052 1.360554 0.9075482 6.452341 -27.89469 6.952002 -0 29.91971 -0 -6.425338 -5.032127 -4.074565 -4.907071 12.19927 -15.82597 -0 9.318436 -0 3.466926 -20.8018 18.53954 -2.994926 -1.423624 2.572588 4.3284 9.882701 -9.764191 0.753162 20.20156 6.72019 2.957367 -26.37134 8.074863 5.836798 -18.45947 11.83013 86.2997 32.67886 -20.79561 -0 0 12.75007 -10.22552 8.669388 8.043821 5.204803 -20.84008 -1.982276 -91.24611 25.98418 19.12892 0 0 -18.18016 3.943486 13.08856 9.464217
1.515349 101.946 16.54974 -1.390551 1.346243 1.459752 5.820197 -29.64308 5.281435 -0 28.63977 -0 -6.298913 -1.1657 -3.873284 -4.703129 11.72885 -13.64568 -0 10.69501 -0 1.617443 -21.02304 15.99354 -2.786052 -0.8051327 2.40992 3.993058 10.2789 -9.96596 0.5399017 19.62706 7.338265 3.542398 -25.48612 7.802736 6.054706 -17.82393 11.90251 86.49481 33.23332 -21.10128 -0 0 12.07571 -13.45213 10.68564 9.346371 5.688563 -21.73455 -2.412943 -89.4666 24.32562 17.22809 0 0 -19.91835 3.771591 11.8576 9.621492
1.969728 101.2774 21.30804 -1.158642 1.04792 2.14492 4.571623 -31.27161 3.047445 -0 25.63087 -0 -5.750278 2.362559 -3.848571 -4.698889 11.60894 -11.19307 -0 11.68029 -0 -0.1137706 -21.27611 13.35302 -2.704955 -0.2080286 2.358269 3.531165 10.66574 -10.12947 0.3613645 19.18727 7.850966 4.028735 -24.12647 7.446261 6.000604 -17.12828 11.85441 87.0505 33.52233 -21.68731 -0 0 11.20417 -17.10626 12.81601 10.77653 6.313542 -22.8025 -3.055581 -87.22335 22.3706 14.58277 0 0 -22.53748 3.734706 10.48017 9.543689
2.487797 100.1041 26.70386 -0.3518789 0.3697348 2.923788 2.55707 -32.49518 0.2373641 -0 19.4589 -0 -4.525765 4.705704 -4.217859 -5.103469 12.40672 -8.705937 -0 11.81146 -0 -1.415348 -21.78436 11.02438 -2.895794 0.1977127 2.488508 2.976501 10.89359 -10.20569 0.2943882 19.07469 8.030788 4.235946 -22.2218 6.995785 5.396982 -16.38736 11.58214 88.2072 33.06861 -22.78186 -0 0 9.965814 -20.59587 14.65547 11.971 7.107903 -23.99477 -3.918284 -84.55265 20.31455 10.96917 0 0 -26.34709 3.895116 9.138627 9.080202
2.995278 98.18608 32.72106 1.170802 -0.5942104 3.765596 0.1252693 -32.75094 -2.511687 -0 9.504498 -0 -2.525125 5.17474 -5.230364 -6.132542 14.80924 -6.678423 -0 10.8742 -0 -1.88791 -22.71165 9.745056 -3.49984 0.06124222 2.831742 2.509582 10.79423 -10.17675 0.4190138 19.40871 7.596535 3.959134 -20.07172 6.469559 4.06046 -15.65358 11.05599 90.02296 31.21228 -24.54791 -0 0 8.124532 -22.60881 15.43512 12.25893 7.990862 -25.08716 -4.824052 -81.82263 18.53033 6.647699 0 0 -31.11886 4.309831 8.050033 8.143548
3.488052 95.84229 39.43972 2.577263 -0.9179974 4.648675 -0.7961347 -31.82254 -2.946553 -0 0.241039 -0 -0.5261458 5.247433 -6.7488 -7.327444 18.29106 -5.783131 -0 10.75985 -0 -1.917479 -23.30713 9.796166 -4.143622 -0.9378569 3.241738 2.637014 10.5551 -10.26639 0.5699885 19.47684 6.738802 3.453225 -19.24296 5.83993 2.833955 -15.20726 10.68519 91.40499 28.06806 -26.54719 -0 0 6.107902 -21.44475 14.11045 11.31162 8.612137 -25.54449 -5.08604 -80.49532 17.3507 4.205723 0 0 -34.39075 4.784232 6.856981 7.269303
4.101479 94.13962 46.85651 2.211152 0.1861782 5.491638 1.565594 -30.0331 0.666346 -0 0.5934227 -0 0.3613533 7.453712 -8.059351 -7.265669 19.53332 -5.936021 -0 15.37486 -0 -3.304028 -21.42295 9.596496 -3.828049 -2.088145 3.527746 3.611127 10.87854 -10.78708 0.2377496 18.03654 6.429149 3.598428 -21.06016 4.936752 3.586921 -15.44301 11.14858 90.41494 25.89883 -27.49747 -0 0 5.837549 -17.78437 11.06167 10.34176 8.424076 -24.94851 -4.275411 -82.08404 16.56294 7.177692 0 0 -32.52025 4.450129 4.297619 7.951288
4.733681 93.22645 54.50296 0.8413976 0.1430568 6.143174 4.386594 -27.17103 4.45717 -0 7.080707 -0 0.2656583 6.764169 -8.829418 -5.698377 18.06248 -6.218043 -0 23.6277 -0 -5.64844 -17.38466 9.256543 -2.834579 -2.01932 3.342035 4.181571 11.11521 -10.85519 0.1056082 17.22652 6.375828 3.829789 -21.94712 4.53487 4.989808 -15.11273 11.6377 88.70102 26.30819 -26.5882 -0 0 6.867604 -15.38151 9.795871 9.585125 7.491316 -23.80793 -3.552025 -83.71499 17.02688 9.984454 0 0 -28.2292 3.401051 2.753009 9.451097
5.040235 92.65229 62.02209 -0.01035379 -2.913837 6.238182 5.239773 -24.30987 4.825145 -0 13.01831 -0 -0.1914485 0.3249205 -9.409781 -3.669382 18.08503 -6.924337 -0 31.76966 -0 -7.318768 -13.97713 10.51009 -1.703033 -1.133314 2.28343 2.996713 10.22355 -9.451098 1.274933 19.5009 6.036835 2.976215 -18.96065 6.211267 4.41824 -12.80595 10.95866 89.56848 28.27261 -24.74002 -0 0 6.259499 -17.12846 13.70265 8.388073 6.674063 -22.8233 -3.585512 -82.05147 19.7486 5.904202 0 0 -26.82668 3.23349 6.417841 9.378235
4.951847 92.59743 69.41336 -0.4616834 -6.71153 5.849385 5.102327 -22.43907 3.587082 -0 19.9401 -0 -0.26946 -6.349698 -9.9401 -2.16534 20.18356 -8.568931 -0 37.66787 -0 -8.501442 -12.32789 12.51341 -0.5317275 -0.4509261 1.024256 0.9403637 8.766536 -7.397026 3.018375 22.76907 5.925834 1.654535 -14.98603 9.274542 2.925234 -9.808619 9.746273 91.78258 30.21918 -22.97011 -0 0 4.789031 -21.05634 20.10356 7.573262 6.474974 -21.84304 -3.724123 -79.33511 22.42039 -0.6210185 0 0 -26.74342 4.269641 12.5648 7.683608
4.663469 93.23536 76.70717 -0.4827775 -9.777303 5.291335 4.816427 -19.90536 2.85459 -0 26.84283 -0 0.3014145 -10.25404 -10.46454 -1.591335 21.64292 -10.15637 -0 43.06284 -0 -9.474383 -11.7121 14.32697 0.1345109 -0.01767132 0.4278237 -0.5591615 7.672413 -5.661625 4.388896 25.01832 5.828411 0.7195224 -12.30917 11.60044 1.886172 -7.72991 8.827647 92.89397 30.653 -21.11054 -0 0 4.145233 -23.79018 24.21078 7.188233 6.433181 -20.47443 -3.697855 -78.42414 23.70849 -4.157682 0 0 -24.69789 5.152801 16.71154 5.903459
4.390442 94.53283 83.8557 -0.0670315 -11.93689 4.692963 4.701017 -15.22817 3.055912 -0 30.81701 -0 1.271769 -11.29373 -10.58417 -1.852618 19.98035 -10.67317 -0 50.24392 -0 -10.08628 -10.95668 15.93257 0.2568395 0.3402012 0.9076536 -1.200856 7.534237 -4.431015 5.117684 25.94806 5.561527 0.4636863 -11.21033 12.36654 1.533038 -7.358444 8.556501 92.39756 29.49412 -19.08347 -0 0 4.842798 -24.86637 25.10627 7.149453 6.10994 -18.96931 -3.710698 -79.86943 23.93462 -3.182762 0 0 -20.86599 4.85005 17.80175 5.457792
4.26147 96.24898 90.76282 0.5371412 -12.77328 4.026213 4.762457 -9.244429 3.956075 -0 29.98618 -0 1.998215 -10.25775 -9.967634 -2.468719 14.37175 -9.805003 -0 57.30468 -0 -10.03579 -9.806948 17.10507 -0.02106538 0.6597411 2.358976 -1.063617 8.437341 -3.861581 5.076428 25.6674 5.227916 0.8709582 -11.61885 11.54793 1.777152 -8.869063 9.043216 90.67371 27.55059 -17.29946 -0 0 6.802351 -24.65228 23.3024 7.627347 5.500274 -18.00144 -3.865242 -82.76662 23.43546 1.407624 0 0 -17.38618 3.430394 16.16089 6.73393
4.306135 97.94176 97.35121 1.033157 -12.07283 3.224376 4.886004 -3.580139 5.160113 -0 25.0014 -0 1.855202 -8.80702 -8.637247 -2.69395 5.551324 -7.866782 -0 60.7944 -0 -9.27967 -8.530843 17.54842 -0.5374527 0.9342982 4.281784 -0.3394507 9.914867 -4.028022 4.320008 24.5643 4.867439 1.620316 -13.12107 9.53064 2.399551 -11.77918 10.12183 88.21167 25.65512 -15.91468 -0 0 9.672881 -23.19792 19.44716 8.489788 4.795023 -17.94465 -4.047536 -85.74322 22.56917 7.47807 0 0 -15.94791 1.752364 12.67302 9.064254
4.486966 99.17553 103.6339 1.256662 -10.48396 2.304492 4.937614 0.819363 6.122483 -0 19.08714 -0 1.067896 -8.607581 -6.997728 -2.134623 -3.99821 -5.676791 -0 59.07528 -0 -8.253627 -7.561331 17.5064 -1.021549 1.145439 5.992629 0.4500532 11.10685 -4.517431 3.302779 23.38456 4.544609 2.223877 -14.75906 7.352694 2.964447 -14.90776 11.24976 85.69337 24.38639 -14.57274 -0 0 12.84341 -21.26344 15.1781 9.471219 4.301018 -18.42011 -4.048679 -87.80431 21.86783 12.6747 0 0 -16.36375 0.6861429 9.141962 11.22726
4.766 99.72077 109.7103 1.289704 -9.188446 1.377496 4.78772 4.386973 6.591768 -0 15.30617 -0 0.6725672 -10.05325 -5.678696 -1.164117 -11.75997 -4.058947 -0 53.37001 -0 -7.537522 -7.234361 17.69904 -1.276032 1.312088 7.111299 0.7865253 11.46318 -4.679769 2.599926 22.70784 4.28298 2.408953 -15.63405 5.968424 2.996495 -17.29678 11.86593 83.66976 23.36226 -12.73154 -0 0 15.95545 -19.90801 11.98957 10.31629 4.168297 -18.52444 -3.818725 -89.09779 21.63492 16.12113 0 0 -16.65953 0.1445063 6.952596 12.64392
